<svg width="104" height="116" viewBox="0 0 104 116" fill="none" xmlns="http://www.w3.org/2000/svg">
    <path
        d="M52.2 49.2984L65.136 45.7816L66.8804 26.8032H43.8728L43.3016 20.492H67.4544L68.09 14.3012H36.31L38.0908 32.9996H59.9868L59.256 41.0244L52.2 42.892L45.144 41.0244L44.7016 35.8612H38.3456L39.2668 45.7844L52.2 49.2984ZM27 4H77.4L72.8556 54.4L52.2 60L31.5444 54.4L27 4Z"
        fill="white" />
    <path
        d="M38.9641 89V83.123H34.2841V89H32.7271V76.607H34.2841V81.845H38.9641V76.607H40.5211V89H38.9641ZM47.624 77.948V89H46.067V77.948H42.197V76.607H51.548L51.386 77.948H47.624ZM61.279 76.607L61.981 89H60.478L60.091 82.529C60.073 82.091 60.055 81.647 60.037 81.197C60.019 80.747 60.007 80.315 60.001 79.901C59.995 79.487 59.992 79.118 59.992 78.794C59.992 78.47 59.992 78.218 59.992 78.038L57.904 86.777H56.338L54.097 78.038C54.103 78.212 54.109 78.47 54.115 78.812C54.121 79.148 54.124 79.529 54.124 79.955C54.13 80.381 54.127 80.819 54.115 81.269C54.109 81.713 54.097 82.127 54.079 82.511L53.746 89H52.279L52.981 76.607H55.159L57.166 85.094L59.083 76.607H61.279ZM64.422 89V76.607H65.988V87.605H71.64L71.46 89H64.422Z"
        fill="white" />
</svg>