<svg width="22" height="27" viewBox="0 0 22 27" fill="none" xmlns="http://www.w3.org/2000/svg">
    <path d="M10.9923 26.5879C10.7294 26.5879 10.4683 26.5434 10.209 26.4545C9.94985 26.3656 9.7203 26.2249 9.5203 26.0322C8.41652 25.0249 7.31652 23.9434 6.2203 22.7879C5.12386 21.6323 4.14052 20.4341 3.2703 19.1932C2.39985 17.9525 1.69241 16.6896 1.14797 15.4045C0.603521 14.1192 0.331299 12.8506 0.331299 11.5989C0.331299 8.26553 1.40352 5.60997 3.54797 3.63219C5.69241 1.65442 8.17574 0.665527 10.998 0.665527C13.8202 0.665527 16.3035 1.65442 18.448 3.63219C20.5924 5.60997 21.6646 8.26553 21.6646 11.5989C21.6646 12.8506 21.3924 14.1192 20.848 15.4045C20.3035 16.6896 19.5961 17.9525 18.7256 19.1932C17.8554 20.4341 16.8721 21.6323 15.7756 22.7879C14.6794 23.9434 13.5794 25.0249 12.4756 26.0322C12.2756 26.2249 12.0442 26.3656 11.7813 26.4545C11.5184 26.5434 11.2554 26.5879 10.9923 26.5879ZM11 13.7765C11.6726 13.7765 12.2479 13.537 12.7256 13.0579C13.2034 12.579 13.4423 12.0031 13.4423 11.3302C13.4423 10.6575 13.2027 10.0823 12.7236 9.60453C12.2447 9.12675 11.6689 8.88786 10.996 8.88786C10.3233 8.88786 9.74808 9.12742 9.2703 9.60653C8.79252 10.0854 8.55363 10.6613 8.55363 11.3342C8.55363 12.0069 8.79319 12.5821 9.2723 13.0599C9.75119 13.5376 10.3271 13.7765 11 13.7765Z" fill="#3DCFB6"/>
</svg>