<svg xmlns="http://www.w3.org/2000/svg" viewBox="0 0 32 32" height="32" width="32"><g xmlns="http://www.w3.org/2000/svg" transform="matrix(-1 0 0 -1 32 32)"><mask id="mask0_68397_1137" style="mask-type:alpha" maskUnits="userSpaceOnUse" x="0" y="0" width="32" height="32"><rect width="32" height="32" fill="#D9D9D9" /></mask><g mask="url(#mask0_68397_1137)"><path d="M22.7715 16.6667H7.33317C7.14339 16.6667 6.98484 16.603 6.8575 16.4757C6.73017 16.3483 6.6665 16.1898 6.6665 16C6.6665 15.8102 6.73017 15.6517 6.8575 15.5243C6.98484 15.397 7.14339 15.3333 7.33317 15.3333H22.7715L15.5205 8.08199C15.3905 7.95222 15.3225 7.79922 15.3165 7.62299C15.3105 7.44699 15.3811 7.28544 15.5282 7.13833C15.6751 6.99655 15.8323 6.92433 15.9998 6.92166C16.1674 6.91922 16.3246 6.99144 16.4715 7.13833L24.5792 15.246C24.6956 15.3624 24.7773 15.4813 24.8242 15.6027C24.8713 15.724 24.8948 15.8564 24.8948 16C24.8948 16.1435 24.8713 16.276 24.8242 16.3973C24.7773 16.5187 24.6956 16.6375 24.5792 16.754L16.4715 24.8617C16.3468 24.9863 16.1952 25.053 16.0165 25.0617C15.8378 25.0701 15.6751 25.0034 15.5282 24.8617C15.3811 24.7146 15.3075 24.556 15.3075 24.386C15.3075 24.2158 15.3811 24.0572 15.5282 23.9103L22.7715 16.6667Z" fill="#3DCFB6" /></g></g></svg>