<svg width="568" height="568" viewBox="0 0 568 568" fill="none" xmlns="http://www.w3.org/2000/svg">
    <g clip-path="url(#clip0_80281_568)">
        <path d="M0.739624 0.739502L567.255 567.255" stroke="#3DCFB6" stroke-miterlimit="10" />
        <path d="M567.255 529.645L38.35 0.739502" stroke="#3DCFB6" stroke-miterlimit="10" />
        <path d="M567.255 492.034L75.9603 0.739502" stroke="#3DCFB6" stroke-miterlimit="10" />
        <path d="M567.255 454.424L113.571 0.739502" stroke="#3DCFB6" stroke-miterlimit="10" />
        <path d="M567.255 416.814L151.181 0.739502" stroke="#3DCFB6" stroke-miterlimit="10" />
        <path d="M567.255 379.203L188.791 0.739502" stroke="#3DCFB6" stroke-miterlimit="10" />
        <path d="M567.255 341.593L226.402 0.739502" stroke="#3DCFB6" stroke-miterlimit="10" />
        <path d="M567.255 303.983L264.012 0.739502" stroke="#3DCFB6" stroke-miterlimit="10" />
        <path d="M567.255 266.372L301.622 0.739502" stroke="#3DCFB6" stroke-miterlimit="10" />
        <path d="M567.255 228.762L339.233 0.739502" stroke="#3DCFB6" stroke-miterlimit="10" />
        <path d="M567.255 191.152L376.843 0.739502" stroke="#3DCFB6" stroke-miterlimit="10" />
        <path d="M567.255 153.541L414.453 0.739502" stroke="#3DCFB6" stroke-miterlimit="10" />
        <path d="M567.255 115.931L452.064 0.739502" stroke="#3DCFB6" stroke-miterlimit="10" />
        <path d="M78.3208 567.255L0.739624 489.674" stroke="#3DCFB6" stroke-miterlimit="10" />
        <path d="M115.931 567.255L0.739624 452.064" stroke="#3DCFB6" stroke-miterlimit="10" />
        <path d="M3.10011 567.255L0.739624 564.895" stroke="#3DCFB6" stroke-miterlimit="10" />
        <path d="M40.7104 567.255L0.739624 527.284" stroke="#3DCFB6" stroke-miterlimit="10" />
        <path d="M153.541 567.255L0.739624 414.453" stroke="#3DCFB6" stroke-miterlimit="10" />
        <path d="M191.152 567.255L0.739624 376.843" stroke="#3DCFB6" stroke-miterlimit="10" />
        <path d="M228.762 567.255L0.739624 339.233" stroke="#3DCFB6" stroke-miterlimit="10" />
        <path d="M266.372 567.255L0.739624 301.622" stroke="#3DCFB6" stroke-miterlimit="10" />
        <path d="M303.983 567.255L0.739624 264.012" stroke="#3DCFB6" stroke-miterlimit="10" />
        <path d="M341.593 567.255L0.739624 226.402" stroke="#3DCFB6" stroke-miterlimit="10" />
        <path d="M379.203 567.255L0.739624 188.791" stroke="#3DCFB6" stroke-miterlimit="10" />
        <path d="M416.814 567.255L0.739624 151.181" stroke="#3DCFB6" stroke-miterlimit="10" />
        <path d="M454.424 567.255L0.739624 113.571" stroke="#3DCFB6" stroke-miterlimit="10" />
        <path d="M492.035 567.255L0.739624 75.9602" stroke="#3DCFB6" stroke-miterlimit="10" />
        <path d="M529.645 567.255L0.739624 38.3499" stroke="#3DCFB6" stroke-miterlimit="10" />
        <path d="M567.255 78.3207L489.674 0.739502" stroke="#3DCFB6" stroke-miterlimit="10" />
        <path d="M567.255 40.7103L527.284 0.739502" stroke="#3DCFB6" stroke-miterlimit="10" />
        <path d="M567.255 3.09998L564.895 0.739502" stroke="#3DCFB6" stroke-miterlimit="10" />
    </g>
    <defs>
        <clipPath id="clip0_80281_568">
            <rect width="568" height="568" rx="30" fill="white" />
        </clipPath>
    </defs>
</svg>